# xmcd
#
# Track frame offsets:
#	150
#	13626
#	27118
#	40861
#	52559
#	63805
#	76200
#	89105
#	101321
#	114926
#	129794
#	142417
#	155810
#	168906
#	183395
#	196306
#	210019
#	223141
#	236156
#	248166
#	262346
#	273652
#	286360
#	300879
#	313715
#
# Disc length: 4373 seconds
#
# Revision: 0
# Processed by: cddbd v1.5.2PL0 Copyright (c) Steve Scherf et al.
# Submitted via: EasyCDDAExtractor 10.0.2.1
#
DISCID=59111319
DTITLE=Sonora Matancera - Las 100 Mejores Boleros Vol.1
DYEAR=2001
DGENRE=Son Cubano
TTITLE0=Angustia
TTITLE1=Amor fenecido
TTITLE2=En el juego
TTITLE3=No te miento
TTITLE4=El preso
TTITLE5=Quemame los ojos
TTITLE6=Tristeza marina
TTITLE7=Dos almas
TTITLE8=Amor de pobre
TTITLE9=Señora
TTITLE10=Piel canela
TTITLE11=Sin pensar en ti
TTITLE12=Payaso
TTITLE13=Que linda
TTITLE14=El diez y nueve
TTITLE15=Aunque me cueste la vida
TTITLE16=Soñando contigo
TTITLE17=Cuando tu seas mia
TTITLE18=Tu significas todo para mi
TTITLE19=Mi dicha lejana
TTITLE20=Asombro
TTITLE21=Historia de un amor
TTITLE22=Delirio
TTITLE23=Caribe soy
TTITLE24=Morena
EXTD=
EXTT0=
EXTT1=
EXTT2=
EXTT3=
EXTT4=
EXTT5=
EXTT6=
EXTT7=
EXTT8=
EXTT9=
EXTT10=
EXTT11=
EXTT12=
EXTT13=
EXTT14=
EXTT15=
EXTT16=
EXTT17=
EXTT18=
EXTT19=
EXTT20=
EXTT21=
EXTT22=
EXTT23=
EXTT24=
PLAYORDER=
